<?xml version="1.0" standalone="no"?>
<!DOCTYPE svg PUBLIC "-//W3C//DTD SVG 20010904//EN"
 "http://www.w3.org/TR/2001/REC-SVG-20010904/DTD/svg10.dtd">
<svg version="1.0" xmlns="http://www.w3.org/2000/svg"
 width="260.000000pt" height="260.000000pt" viewBox="0 0 260.000000 260.000000"
 preserveAspectRatio="xMidYMid meet">
<metadata>
Created by potrace 1.14, written by Peter Selinger 2001-2017
</metadata>
<g transform="translate(0.000000,260.000000) scale(0.100000,-0.100000)"
fill="#000000" stroke="none">
<path d="M0 1300 l0 -1300 1300 0 1300 0 0 1300 0 1300 -1300 0 -1300 0 0
-1300z m1730 375 c0 -10 11 -15 35 -15 31 0 35 -3 35 -25 0 -21 5 -25 30 -25
23 0 30 -4 30 -20 0 -14 7 -20 23 -21 l22 -2 -22 -4 c-15 -3 -23 -12 -23 -24
0 -10 -7 -19 -15 -19 -8 0 -15 -9 -15 -20 0 -15 -7 -20 -25 -20 -18 0 -25 5
-25 20 0 15 -7 20 -25 20 -18 0 -25 5 -25 20 0 17 -7 20 -45 20 -38 0 -45 -3
-45 -20 0 -16 -7 -20 -30 -20 -23 0 -30 -4 -30 -20 0 -11 -4 -20 -10 -20 -5 0
-10 -9 -10 -20 0 -13 -7 -20 -20 -20 -18 0 -20 -7 -20 -75 0 -68 2 -75 20 -75
15 0 20 -7 20 -25 0 -14 5 -25 10 -25 6 0 10 -9 10 -20 0 -17 7 -20 45 -20 38
0 45 -3 45 -20 0 -11 7 -20 15 -20 8 0 15 9 15 20 0 17 7 20 40 20 l40 0 0 90
0 90 60 0 60 0 0 -130 c0 -123 -1 -130 -20 -130 -11 0 -20 -4 -20 -10 0 -5
-13 -10 -30 -10 -23 0 -30 -4 -30 -20 0 -17 -7 -20 -50 -20 -38 0 -50 -4 -50
-15 0 -8 -7 -15 -15 -15 -8 0 -15 7 -15 15 0 12 -13 15 -55 15 -48 0 -55 2
-55 20 0 16 -7 20 -36 20 -38 0 -64 18 -64 44 0 9 -7 16 -15 16 -8 0 -15 9
-15 20 0 11 -4 20 -10 20 -5 0 -10 20 -10 45 0 38 -3 45 -20 45 -18 0 -20 7
-20 60 0 53 2 60 20 60 18 0 20 7 20 55 0 30 5 55 10 55 6 0 10 9 10 19 0 12
9 21 25 25 16 4 25 13 25 26 0 13 7 20 20 20 15 0 20 7 20 25 0 24 3 25 60 25
47 0 60 3 60 15 0 11 12 15 45 15 33 0 45 -4 45 -15z m-1420 -34 c0 -10 7 -21
15 -25 8 -3 15 -10 15 -16 0 -15 25 -40 39 -40 6 0 11 -9 11 -20 0 -11 5 -20
10 -20 6 0 10 -9 10 -20 0 -11 6 -20 13 -20 11 0 47 -68 47 -89 0 -5 9 -13 20
-16 11 -3 20 -13 20 -21 0 -25 37 21 45 55 4 17 11 31 16 31 5 0 9 9 9 19 0
10 7 21 14 24 8 3 18 23 22 43 4 23 13 38 25 41 13 4 20 18 25 49 l6 44 79 0
79 0 0 -300 0 -300 -80 0 -80 0 0 150 c0 143 -1 150 -20 150 -16 0 -20 -7 -20
-35 0 -19 -4 -35 -10 -35 -5 0 -10 -11 -10 -25 0 -16 -6 -25 -15 -25 -8 0 -15
-9 -15 -20 0 -11 -7 -20 -15 -20 -11 0 -15 -11 -15 -40 l0 -40 -40 0 c-33 0
-40 3 -40 20 0 11 -4 20 -10 20 -5 0 -10 9 -10 20 0 13 -7 20 -20 20 -16 0
-20 7 -20 30 0 17 -4 30 -10 30 -5 0 -10 14 -10 30 0 25 -4 30 -25 30 -18 0
-25 5 -25 20 0 11 -7 20 -15 20 -13 0 -15 -23 -15 -150 l0 -150 -50 0 -50 0 0
300 0 300 50 0 c42 0 50 -3 50 -19z m910 -141 c0 -13 7 -20 20 -20 13 0 20 -7
20 -20 0 -11 7 -20 15 -20 8 0 15 -7 15 -15 0 -8 7 -15 15 -15 9 0 15 -9 15
-25 0 -16 6 -25 15 -25 12 0 15 -13 15 -60 0 -47 -3 -60 -15 -60 -11 0 -15
-11 -15 -40 0 -29 -4 -40 -15 -40 -8 0 -15 -9 -15 -20 0 -11 -7 -20 -15 -20
-8 0 -15 -4 -15 -10 0 -5 -9 -10 -20 -10 -13 0 -20 -7 -20 -20 0 -19 -7 -20
-115 -20 -108 0 -115 1 -115 20 0 16 -7 20 -30 20 -27 0 -30 3 -30 30 0 20 -5
30 -15 30 -8 0 -15 9 -15 20 0 11 -4 20 -10 20 -6 0 -10 33 -10 80 0 47 4 80
10 80 6 0 10 11 10 25 0 16 6 25 15 25 8 0 15 7 15 15 0 8 9 15 20 15 13 0 20
7 20 20 0 11 5 20 10 20 6 0 10 9 10 20 0 19 7 20 115 20 108 0 115 -1 115
-20z m1100 0 c0 -11 5 -20 10 -20 6 0 10 -9 10 -20 0 -13 7 -20 20 -20 15 0
21 -9 26 -40 4 -24 12 -40 20 -40 10 0 14 -16 14 -60 0 -47 -3 -60 -15 -60
-10 0 -15 -10 -15 -29 0 -50 -12 -91 -27 -91 -19 0 -43 -25 -43 -44 0 -14 -18
-16 -125 -16 -118 0 -125 1 -125 20 0 14 -7 20 -21 20 -31 0 -49 24 -49 64 0
29 -4 36 -20 36 -19 0 -20 7 -20 90 0 83 1 90 20 90 11 0 20 7 20 15 0 8 5 15
10 15 6 0 10 16 10 35 0 31 3 35 25 35 18 0 25 5 25 20 0 19 7 20 125 20 118
0 125 -1 125 -20z m60 -540 l0 -30 -1100 0 -1100 0 0 30 0 30 1100 0 1100 0 0
-30z"/>
<path d="M1080 1395 c0 -9 -9 -15 -25 -15 -25 0 -25 -1 -25 -90 0 -89 0 -90
25 -90 18 0 25 -5 25 -20 0 -16 7 -20 35 -20 28 0 35 4 35 20 0 15 7 20 25 20
25 0 25 1 25 80 0 50 -4 80 -11 80 -14 0 -39 25 -39 39 0 6 -16 11 -35 11 -24
0 -35 -5 -35 -15z"/>
<path d="M2160 1395 c0 -10 -10 -15 -30 -15 l-30 0 0 -90 0 -90 30 0 c23 0 30
-4 30 -20 0 -16 7 -20 30 -20 23 0 30 4 30 20 0 11 7 20 15 20 8 0 15 9 15 20
0 13 7 20 20 20 18 0 20 7 20 60 0 53 -2 60 -20 60 -11 0 -20 5 -20 10 0 6
-16 10 -35 10 -24 0 -35 5 -35 15 0 8 -4 15 -10 15 -5 0 -10 -7 -10 -15z"/>
</g>
</svg>
